<?xml version="1.0" standalone="no"?>
<!DOCTYPE svg PUBLIC "-//W3C//DTD SVG 20010904//EN"
 "http://www.w3.org/TR/2001/REC-SVG-20010904/DTD/svg10.dtd">
<svg version="1.0" xmlns="http://www.w3.org/2000/svg"
 width="24.000000pt" height="24.000000pt" viewBox="0 0 24.000000 24.000000"
 preserveAspectRatio="xMidYMid meet">

<g transform="translate(0.000000,24.000000) scale(0.100000,-0.100000)"
fill="#000000" stroke="none">
<path d="M2 117 l-4 -117 120 0 121 0 -2 118 -2 117 -115 0 -115 0 -3 -118z
m181 76 c-13 -8 -23 -24 -23 -35 0 -17 -5 -19 -30 -16 -16 2 -32 0 -34 -6 -3
-6 -8 -1 -11 12 -5 15 -15 22 -31 22 -17 0 -24 6 -24 20 0 19 6 20 88 19 82 0
86 -1 65 -16z m-120 -130 c-7 -2 -21 -2 -30 0 -10 3 -5 5 12 5 17 0 24 -2 18
-5z m150 0 c-7 -2 -21 -2 -30 0 -10 3 -4 5 12 5 17 0 24 -2 18 -5z m-45 -19
c29 -9 -2 -24 -48 -24 -54 0 -74 15 -38 29 21 8 49 7 86 -5z"/>
</g>
</svg>
